<svg xmlns="http://www.w3.org/2000/svg" xmlns:xlink="http://www.w3.org/1999/xlink" width="1920" zoomAndPan="magnify" viewBox="0 0 1440 809.999993" height="2080" preserveAspectRatio="xMidYMid meet" version="1.0"><defs><clipPath id="b0a66e15c0"><path d="M 0 441.359375 L 1440 441.359375 L 1440 810 L 0 810 Z M 0 441.359375 " clip-rule="nonzero"/></clipPath><clipPath id="886f8e0ef0"><path d="M 0 299 L 1440 299 L 1440 809.714844 L 0 809.714844 Z M 0 299 " clip-rule="nonzero"/></clipPath><clipPath id="2d0e4fc46b"><path d="M 0 431 L 1440 431 L 1440 809.714844 L 0 809.714844 Z M 0 431 " clip-rule="nonzero"/></clipPath></defs><g clip-path="url(#b0a66e15c0)"><path fill="#ffffff" d="M 1489.738281 459.796875 C 1374.308594 498.347656 1292.179688 521.921875 1201.445312 542.371094 C 1096.632812 566.0625 1022.097656 575.78125 934.382812 577.234375 C 839.625 578.6875 765.316406 570.976562 650 547.402344 C 603.515625 537.902344 549.542969 525.722656 434.785156 498.792969 C 320.917969 472.085938 250.519531 457.894531 206.941406 453.089844 C 129.503906 444.375 50.839844 451.300781 -22.910156 473.316406 L -36.65625 477.339844 L -36.878906 643.609375 L -37.214844 809.996094 L 1544.492188 809.996094 L 1544.492188 625.621094 C 1544.492188 524.160156 1544.382812 441.359375 1544.269531 441.46875 C 1544.046875 441.582031 1519.574219 449.851562 1489.738281 459.796875 Z M 1489.738281 459.796875 " fill-opacity="1" fill-rule="nonzero"/></g><g clip-path="url(#886f8e0ef0)"><path fill="#ffffff" d="M 1545.019531 321.59375 C 1371.179688 271.34375 1177.445312 314.460938 1011.351562 380.078125 C 845.261719 445.695312 691.300781 533.792969 515.953125 580.367188 C 340.605469 626.941406 97.839844 598.851562 -37.683594 496.21875 L -37.683594 809.867188 L 1545.011719 809.867188 L 1545.011719 321.59375 Z M 1545.019531 321.59375 " fill-opacity="1" fill-rule="nonzero"/></g><g clip-path="url(#2d0e4fc46b)"><path fill="#ffffff" d="M 1545.019531 463.730469 C 1393.011719 399.628906 1217.175781 439.332031 1064.957031 502.921875 C 912.738281 566.511719 768.292969 653.632812 606.730469 686.980469 C 379.132812 733.964844 130.402344 662.609375 -37.679688 502.125 L -37.679688 809.863281 L 1545.019531 809.863281 Z M 1545.019531 463.730469 " fill-opacity="1" fill-rule="nonzero"/></g></svg>