<svg xmlns="http://www.w3.org/2000/svg" xmlns:xlink="http://www.w3.org/1999/xlink" width="500" zoomAndPan="magnify" viewBox="0 0 375 131.999998" height="176" preserveAspectRatio="xMidYMid meet" version="1.0"><defs><clipPath id="f0d9606e83"><path d="M 0 44.8125 L 375 44.8125 L 375 131.8125 L 0 131.8125 Z M 0 44.8125 " clip-rule="nonzero"/></clipPath></defs><g clip-path="url(#f0d9606e83)"><path fill="#ffffff" d="M 361.597656 49.171875 C 334.296875 58.292969 314.871094 63.867188 293.410156 68.703125 C 268.621094 74.308594 250.996094 76.605469 230.246094 76.949219 C 207.835938 77.292969 190.261719 75.46875 162.988281 69.894531 C 151.992188 67.648438 139.226562 64.765625 112.085938 58.398438 C 85.15625 52.082031 68.503906 48.722656 58.199219 47.585938 C 39.882812 45.527344 21.277344 47.164062 3.835938 52.371094 L 0.585938 53.324219 L 0.53125 92.648438 L 0.453125 132 L 374.546875 132 L 374.546875 88.394531 C 374.546875 64.394531 374.519531 44.8125 374.496094 44.839844 C 374.441406 44.867188 368.652344 46.820312 361.597656 49.171875 Z M 361.597656 49.171875 " fill-opacity="1" fill-rule="nonzero"/></g></svg>